<?xml version="1.0" encoding="UTF-8" standalone="no"?>
<!-- Created with Inkscape (http://www.inkscape.org/) -->

<svg
   xmlns:dc="http://purl.org/dc/elements/1.1/"
   xmlns:cc="http://creativecommons.org/ns#"
   xmlns:rdf="http://www.w3.org/1999/02/22-rdf-syntax-ns#"
   xmlns:svg="http://www.w3.org/2000/svg"
   xmlns="http://www.w3.org/2000/svg"
   xmlns:xlink="http://www.w3.org/1999/xlink"
   xmlns:sodipodi="http://sodipodi.sourceforge.net/DTD/sodipodi-0.dtd"
   xmlns:inkscape="http://www.inkscape.org/namespaces/inkscape"
   width="35"
   height="35"
   viewBox="0 0 9.2604165 9.2604169"
   version="1.1"
   id="svg8"
   inkscape:version="0.92.1 r15371"
   sodipodi:docname="garam.svg">
  <defs
     id="defs2">
    <linearGradient
       inkscape:collect="always"
       id="linearGradient6165">
      <stop
         style="stop-color:#ff2a2a;stop-opacity:1;"
         offset="0"
         id="stop6161" />
      <stop
         style="stop-color:#ffe680;stop-opacity:1"
         offset="1"
         id="stop6163" />
    </linearGradient>
    <linearGradient
       inkscape:collect="always"
       xlink:href="#linearGradient6165"
       id="linearGradient6167"
       x1="64.095329"
       y1="171.63554"
       x2="68.288429"
       y2="175.57613"
       gradientUnits="userSpaceOnUse"
       gradientTransform="translate(1.889881,0.56696429)" />
    <linearGradient
       inkscape:collect="always"
       xlink:href="#linearGradient6165"
       id="linearGradient6173"
       gradientUnits="userSpaceOnUse"
       x1="64.095329"
       y1="171.63554"
       x2="68.288429"
       y2="175.57613"
       gradientTransform="translate(1.7008929,-2.9175037)" />
    <linearGradient
       inkscape:collect="always"
       xlink:href="#linearGradient6165"
       id="linearGradient6175"
       gradientUnits="userSpaceOnUse"
       x1="64.095329"
       y1="171.63554"
       x2="68.288429"
       y2="175.57613"
       gradientTransform="translate(-1.2756696,-0.04724702)" />
    <linearGradient
       inkscape:collect="always"
       xlink:href="#linearGradient6165"
       id="linearGradient6183"
       x1="67.024574"
       y1="173.21378"
       x2="62.134506"
       y2="168.84343"
       gradientUnits="userSpaceOnUse" />
  </defs>
  <sodipodi:namedview
     id="base"
     pagecolor="#ffffff"
     bordercolor="#666666"
     borderopacity="1.0"
     inkscape:pageopacity="0.0"
     inkscape:pageshadow="2"
     inkscape:zoom="11.2"
     inkscape:cx="34.513096"
     inkscape:cy="0.18037351"
     inkscape:document-units="px"
     inkscape:current-layer="layer1"
     showgrid="false"
     units="px"
     fit-margin-top="0"
     fit-margin-left="0"
     fit-margin-right="0"
     fit-margin-bottom="0"
     inkscape:window-width="1920"
     inkscape:window-height="1027"
     inkscape:window-x="-8"
     inkscape:window-y="22"
     inkscape:window-maximized="1" />
  <metadata
     id="metadata5">
    <rdf:RDF>
      <cc:Work
         rdf:about="">
        <dc:format>image/svg+xml</dc:format>
        <dc:type
           rdf:resource="http://purl.org/dc/dcmitype/StillImage" />
        <dc:title></dc:title>
      </cc:Work>
    </rdf:RDF>
  </metadata>
  <g
     inkscape:label="Layer 1"
     inkscape:groupmode="layer"
     id="layer1"
     transform="translate(-61.756531,-168.25284)">
    <rect
       style="opacity:1;fill:#87aade;fill-opacity:1;stroke:#800000;stroke-width:0.05235916;stroke-miterlimit:4;stroke-dasharray:none;stroke-dashoffset:0;stroke-opacity:0.19607843"
       id="rect4485"
       width="9.2080574"
       height="9.2080574"
       x="61.782711"
       y="168.27902"
       ry="0.20943664" />
    <path
       style="opacity:1;fill:url(#linearGradient6183);fill-opacity:1;stroke:none;stroke-width:0.5;stroke-miterlimit:4;stroke-dasharray:none;stroke-dashoffset:0;stroke-opacity:0.19607843"
       d="m 64.946987,168.41174 c -0.243964,0.1078 -0.435084,0.33428 -0.480469,0.59961 -0.03286,0.23624 0.08662,0.45554 0.195732,0.6555 -1.935566,-0.89276 -0.43488,-1.00058 -0.591007,-0.82133 -0.158531,0.14033 -0.218936,-0.25939 -1.180524,-0.22629 -0.180854,0.0104 1.359228,1.4335 1.224842,1.31631 -0.177169,-0.14905 -0.244431,-0.35783 -0.425829,-0.49385 -0.227267,-0.18943 -1.13978,0.33351 -1.304743,0.55231 -0.06999,0.0943 -0.143384,0.19302 -0.168471,0.31032 0.137789,0.0488 0.269358,0.1206 0.419922,0.125 0.20209,0.024 0.423785,-0.009 0.605469,0.10156 0.117626,0.0773 0.194198,0.20893 0.197069,0.34901 9.24e-4,0.18912 -0.108209,0.35008 -0.195564,0.50946 -0.08122,0.14122 -0.160991,0.28882 -0.185099,0.45208 l 0.583984,-0.84375 c 0.200701,-0.14872 0.21615,0.67235 0.453033,0.63786 0.131182,-0.005 -0.0036,0.65081 0.109188,0.74731 0.07816,0.20827 -0.216823,-0.94762 -0.109188,-0.74731 0.02604,0.0788 0.808032,0.0158 0.834082,0.0946 0.173632,0.17491 0.450913,0.23305 0.679687,0.14062 0.03283,-0.0433 2.68382,-0.53805 2.7101,-0.58556 -0.140545,-0.22605 -2.843399,-0.033 -2.962344,-0.26986 -0.120024,-0.25707 2.459139,-0.54282 2.362005,-0.81209 -0.09535,-0.29266 -2.784888,-0.4992 -2.741528,-0.79012 0.03841,-0.2572 0.06739,-0.51898 0.04068,-0.77885 -0.0051,-0.0712 -0.0165,-0.14178 -0.02415,-0.21273 l -0.02148,-0.0117 z"
       id="rect6154"
       inkscape:connector-curvature="0"
       sodipodi:nodetypes="cccccccccccccccccccccccccccc" />
    <path
       sodipodi:type="star"
       style="opacity:1;fill:url(#linearGradient6167);fill-opacity:1;stroke:none;stroke-width:0.32791567;stroke-miterlimit:4;stroke-dasharray:none;stroke-dashoffset:0;stroke-opacity:0.19607843"
       id="path6157"
       sodipodi:sides="5"
       sodipodi:cx="68.332706"
       sodipodi:cy="174.57035"
       sodipodi:r1="0.79951793"
       sodipodi:r2="1.0174481"
       sodipodi:arg1="0.8362806"
       sodipodi:arg2="1.4645991"
       inkscape:flatsided="true"
       inkscape:rounded="4.2531484"
       inkscape:randomized="0"
       d="m 68.868562,175.16371 c -2.966759,2.67923 2.530283,2.09325 -0.934595,0.0996 -3.464877,-1.99363 -1.208903,3.05329 -0.383556,-0.85807 0.825347,-3.91136 -3.277425,-0.20622 0.697545,-0.62994 3.97497,-0.42373 -0.816658,-3.18074 0.814661,0.46874 1.63132,3.64948 2.772704,-1.75959 -0.194055,0.91964 z"
       inkscape:transform-center-x="-0.040619421"
       inkscape:transform-center-y="-0.080808484" />
    <path
       inkscape:transform-center-y="-0.080808484"
       inkscape:transform-center-x="-0.040619421"
       d="m 65.703019,174.54951 c -2.966759,2.67923 2.530283,2.09326 -0.934595,0.0996 -3.464877,-1.99363 -1.208902,3.05329 -0.383555,-0.85807 0.825347,-3.91136 -3.277426,-0.20621 0.697544,-0.62994 3.97497,-0.42372 -0.816658,-3.18074 0.814662,0.46874 1.631319,3.64949 2.772703,-1.75959 -0.194056,0.91964 z"
       inkscape:randomized="0"
       inkscape:rounded="4.2531484"
       inkscape:flatsided="true"
       sodipodi:arg2="1.4645991"
       sodipodi:arg1="0.8362806"
       sodipodi:r2="1.0174481"
       sodipodi:r1="0.79951793"
       sodipodi:cy="173.95614"
       sodipodi:cx="65.167157"
       sodipodi:sides="5"
       id="path6169"
       style="opacity:1;fill:url(#linearGradient6175);fill-opacity:1;stroke:none;stroke-width:0.32791567;stroke-miterlimit:4;stroke-dasharray:none;stroke-dashoffset:0;stroke-opacity:0.19607843"
       sodipodi:type="star" />
    <path
       sodipodi:type="star"
       style="opacity:1;fill:url(#linearGradient6173);fill-opacity:1;stroke:none;stroke-width:0.32791567;stroke-miterlimit:4;stroke-dasharray:none;stroke-dashoffset:0;stroke-opacity:0.19607843"
       id="path6171"
       sodipodi:sides="5"
       sodipodi:cx="68.143718"
       sodipodi:cy="171.08588"
       sodipodi:r1="0.79951793"
       sodipodi:r2="1.0174481"
       sodipodi:arg1="0.8362806"
       sodipodi:arg2="1.4645991"
       inkscape:flatsided="true"
       inkscape:rounded="4.2531484"
       inkscape:randomized="0"
       d="m 68.679574,171.67924 c -2.966759,2.67923 2.530283,2.09326 -0.934595,0.0996 -3.464877,-1.99363 -1.208902,3.05329 -0.383555,-0.85807 0.825347,-3.91136 -3.277426,-0.20621 0.697544,-0.62994 3.97497,-0.42372 -0.816658,-3.18074 0.814662,0.46874 1.631319,3.64949 2.772703,-1.75959 -0.194056,0.91964 z"
       inkscape:transform-center-x="-0.040619421"
       inkscape:transform-center-y="-0.080808484" />
  </g>
</svg>
