<?xml version="1.0" encoding="UTF-8" standalone="no"?>
<!-- Created with Inkscape (http://www.inkscape.org/) -->

<svg
   xmlns:dc="http://purl.org/dc/elements/1.1/"
   xmlns:cc="http://creativecommons.org/ns#"
   xmlns:rdf="http://www.w3.org/1999/02/22-rdf-syntax-ns#"
   xmlns:svg="http://www.w3.org/2000/svg"
   xmlns="http://www.w3.org/2000/svg"
   xmlns:xlink="http://www.w3.org/1999/xlink"
   xmlns:sodipodi="http://sodipodi.sourceforge.net/DTD/sodipodi-0.dtd"
   xmlns:inkscape="http://www.inkscape.org/namespaces/inkscape"
   width="35.000004"
   height="35.000004"
   viewBox="0 0 9.2604178 9.2604182"
   version="1.1"
   id="svg5609"
   inkscape:version="0.92.1 r15371"
   sodipodi:docname="kugis.svg">
  <defs
     id="defs5603">
    <linearGradient
       id="linearGradient6501"
       inkscape:collect="always">
      <stop
         id="stop6497"
         offset="0"
         style="stop-color:#000080;stop-opacity:1;" />
      <stop
         id="stop6499"
         offset="1"
         style="stop-color:#f4eed7;stop-opacity:1" />
    </linearGradient>
    <linearGradient
       id="linearGradient6495"
       inkscape:collect="always">
      <stop
         id="stop6491"
         offset="0"
         style="stop-color:#000080;stop-opacity:1;" />
      <stop
         id="stop6493"
         offset="1"
         style="stop-color:#f4eed7;stop-opacity:1" />
    </linearGradient>
    <linearGradient
       id="linearGradient6489"
       inkscape:collect="always">
      <stop
         id="stop6485"
         offset="0"
         style="stop-color:#000080;stop-opacity:1;" />
      <stop
         id="stop6487"
         offset="1"
         style="stop-color:#f4eed7;stop-opacity:1" />
    </linearGradient>
    <linearGradient
       id="linearGradient6483"
       inkscape:collect="always">
      <stop
         id="stop6479"
         offset="0"
         style="stop-color:#000080;stop-opacity:1;" />
      <stop
         id="stop6481"
         offset="1"
         style="stop-color:#f4eed7;stop-opacity:1" />
    </linearGradient>
    <linearGradient
       id="linearGradient6477"
       inkscape:collect="always">
      <stop
         id="stop6473"
         offset="0"
         style="stop-color:#000080;stop-opacity:1;" />
      <stop
         id="stop6475"
         offset="1"
         style="stop-color:#f4eed7;stop-opacity:1" />
    </linearGradient>
    <linearGradient
       id="linearGradient6471"
       inkscape:collect="always">
      <stop
         id="stop6467"
         offset="0"
         style="stop-color:#000080;stop-opacity:1;" />
      <stop
         id="stop6469"
         offset="1"
         style="stop-color:#f4eed7;stop-opacity:1" />
    </linearGradient>
    <linearGradient
       id="linearGradient6465"
       inkscape:collect="always">
      <stop
         id="stop6461"
         offset="0"
         style="stop-color:#000080;stop-opacity:1;" />
      <stop
         id="stop6463"
         offset="1"
         style="stop-color:#f4eed7;stop-opacity:1" />
    </linearGradient>
    <linearGradient
       id="linearGradient6459"
       inkscape:collect="always">
      <stop
         id="stop6455"
         offset="0"
         style="stop-color:#000080;stop-opacity:1;" />
      <stop
         id="stop6457"
         offset="1"
         style="stop-color:#f4eed7;stop-opacity:1" />
    </linearGradient>
    <linearGradient
       id="linearGradient6453"
       inkscape:collect="always">
      <stop
         id="stop6449"
         offset="0"
         style="stop-color:#000080;stop-opacity:1;" />
      <stop
         id="stop6451"
         offset="1"
         style="stop-color:#f4eed7;stop-opacity:1" />
    </linearGradient>
    <linearGradient
       id="linearGradient6447"
       inkscape:collect="always">
      <stop
         id="stop6443"
         offset="0"
         style="stop-color:#000080;stop-opacity:1;" />
      <stop
         id="stop6445"
         offset="1"
         style="stop-color:#f4eed7;stop-opacity:1" />
    </linearGradient>
    <linearGradient
       inkscape:collect="always"
       id="linearGradient6419">
      <stop
         style="stop-color:#000080;stop-opacity:1;"
         offset="0"
         id="stop6415" />
      <stop
         style="stop-color:#f4eed7;stop-opacity:1"
         offset="1"
         id="stop6417" />
    </linearGradient>
    <linearGradient
       inkscape:collect="always"
       id="linearGradient6321">
      <stop
         style="stop-color:#87aade;stop-opacity:1;"
         offset="0"
         id="stop6317" />
      <stop
         style="stop-color:#87aade;stop-opacity:0;"
         offset="1"
         id="stop6319" />
    </linearGradient>
    <linearGradient
       inkscape:collect="always"
       xlink:href="#linearGradient6321"
       id="linearGradient6323"
       x1="151.59207"
       y1="178.9415"
       x2="160.91154"
       y2="185.13086"
       gradientUnits="userSpaceOnUse" />
    <linearGradient
       inkscape:collect="always"
       xlink:href="#linearGradient6419"
       id="linearGradient6421"
       x1="156.3956"
       y1="184.0303"
       x2="151.57523"
       y2="173.68852"
       gradientUnits="userSpaceOnUse" />
    <linearGradient
       inkscape:collect="always"
       xlink:href="#linearGradient6501"
       id="linearGradient6423"
       x1="156.3956"
       y1="184.0303"
       x2="151.57523"
       y2="173.68852"
       gradientUnits="userSpaceOnUse" />
    <linearGradient
       inkscape:collect="always"
       xlink:href="#linearGradient6495"
       id="linearGradient6425"
       x1="156.3956"
       y1="184.0303"
       x2="151.57523"
       y2="173.68852"
       gradientUnits="userSpaceOnUse" />
    <linearGradient
       inkscape:collect="always"
       xlink:href="#linearGradient6489"
       id="linearGradient6427"
       x1="156.3956"
       y1="184.0303"
       x2="151.57523"
       y2="173.68852"
       gradientUnits="userSpaceOnUse" />
    <linearGradient
       inkscape:collect="always"
       xlink:href="#linearGradient6483"
       id="linearGradient6429"
       x1="156.3956"
       y1="184.0303"
       x2="151.57523"
       y2="173.68852"
       gradientUnits="userSpaceOnUse" />
    <linearGradient
       inkscape:collect="always"
       xlink:href="#linearGradient6477"
       id="linearGradient6431"
       x1="156.3956"
       y1="184.0303"
       x2="151.57523"
       y2="173.68852"
       gradientUnits="userSpaceOnUse" />
    <linearGradient
       inkscape:collect="always"
       xlink:href="#linearGradient6471"
       id="linearGradient6433"
       x1="156.3956"
       y1="184.0303"
       x2="151.57523"
       y2="173.68852"
       gradientUnits="userSpaceOnUse" />
    <linearGradient
       inkscape:collect="always"
       xlink:href="#linearGradient6465"
       id="linearGradient6435"
       x1="156.3956"
       y1="184.0303"
       x2="151.57523"
       y2="173.68852"
       gradientUnits="userSpaceOnUse" />
    <linearGradient
       inkscape:collect="always"
       xlink:href="#linearGradient6459"
       id="linearGradient6437"
       x1="156.3956"
       y1="184.0303"
       x2="151.57523"
       y2="173.68852"
       gradientUnits="userSpaceOnUse" />
    <linearGradient
       inkscape:collect="always"
       xlink:href="#linearGradient6453"
       id="linearGradient6439"
       x1="156.3956"
       y1="184.0303"
       x2="151.57523"
       y2="173.68852"
       gradientUnits="userSpaceOnUse" />
    <linearGradient
       inkscape:collect="always"
       xlink:href="#linearGradient6447"
       id="linearGradient6441"
       x1="156.3956"
       y1="184.0303"
       x2="151.57523"
       y2="173.68852"
       gradientUnits="userSpaceOnUse" />
  </defs>
  <sodipodi:namedview
     id="base"
     pagecolor="#ffffff"
     bordercolor="#666666"
     borderopacity="1.0"
     inkscape:pageopacity="0.0"
     inkscape:pageshadow="2"
     inkscape:zoom="7.9195959"
     inkscape:cx="25.403851"
     inkscape:cy="8.4544185"
     inkscape:document-units="mm"
     inkscape:current-layer="layer1"
     showgrid="false"
     inkscape:window-width="1920"
     inkscape:window-height="1027"
     inkscape:window-x="-8"
     inkscape:window-y="22"
     inkscape:window-maximized="1"
     units="px"
     fit-margin-top="0"
     fit-margin-left="0"
     fit-margin-right="0"
     fit-margin-bottom="0" />
  <metadata
     id="metadata5606">
    <rdf:RDF>
      <cc:Work
         rdf:about="">
        <dc:format>image/svg+xml</dc:format>
        <dc:type
           rdf:resource="http://purl.org/dc/dcmitype/StillImage" />
        <dc:title></dc:title>
      </cc:Work>
    </rdf:RDF>
  </metadata>
  <g
     inkscape:label="Layer 1"
     inkscape:groupmode="layer"
     id="layer1"
     transform="translate(-151.09598,-176.70908)">
    <rect
       style="opacity:1;fill:url(#linearGradient6323);fill-opacity:1;stroke:#800000;stroke-width:0.05235916;stroke-miterlimit:4;stroke-dasharray:none;stroke-dashoffset:0;stroke-opacity:0.19607843"
       id="rect4485"
       width="9.2080584"
       height="9.2080584"
       x="151.12216"
       y="176.73526"
       ry="0.20943664" />
    <path
       style="opacity:1;fill:#000080;fill-opacity:1;stroke:none;stroke-width:0.35793665;stroke-miterlimit:4;stroke-dasharray:none;stroke-dashoffset:0;stroke-opacity:0.19607843"
       d="m 151.31024,182.84231 c -0.0716,0 -0.12842,0.051 -0.14353,0.118 l 2.07054,2.07055 h 4.90278 l 2.15082,-2.06611 c -0.0134,-0.0692 -0.0714,-0.12244 -0.14464,-0.12244 z"
       id="rect6259"
       inkscape:connector-curvature="0" />
    <path
       style="opacity:1;fill:#ffffff;fill-opacity:1;stroke:none;stroke-width:0.5;stroke-miterlimit:4;stroke-dasharray:none;stroke-dashoffset:0;stroke-opacity:0.19607843"
       id="path6279"
       d="m 161.17716,185.17133 c -0.12809,-0.10311 -0.26752,-0.19111 -0.40487,-0.28116 -0.22748,-0.14108 -0.46087,-0.27459 -0.70877,-0.37694 -0.0567,-0.0234 -0.11486,-0.0434 -0.17228,-0.065 -0.29729,-0.0974 -0.60742,-0.15881 -0.91981,-0.1794 -0.0565,-0.004 -0.1132,-0.004 -0.1698,-0.005 -0.15266,0.002 -0.30461,0.0206 -0.45319,0.0555 -0.14404,0.0339 -0.2841,0.0832 -0.42381,0.13119 -0.21136,0.074 -0.421,0.15298 -0.63483,0.21984 -0.16712,0.0523 -0.19263,0.0569 -0.36367,0.10191 -0.40258,0.10116 -0.81694,0.13425 -1.23005,0.15658 -0.27123,0.0107 -0.54343,0.0163 -0.81471,0.003 -0.13581,-0.007 -0.21443,-0.0166 -0.34804,-0.0303 -0.19276,-0.0226 -0.3835,-0.0615 -0.56995,-0.11525 -0.0233,-0.007 -0.25181,-0.0775 -0.27346,-0.0842 -0.25894,-0.0859 -0.51719,-0.17465 -0.76623,-0.28642 -0.14318,-0.0633 -0.28132,-0.13843 -0.41417,-0.22119 -0.0628,-0.0425 -0.13028,-0.0774 -0.20368,-0.0967 -0.10568,-0.0239 -0.21013,0.002 -0.31244,0.0288 -0.26996,0.0764 -0.53663,0.16355 -0.80357,0.24972 -0.20503,0.0633 -0.41292,0.11684 -0.62526,0.14892 -0.11209,0.0169 -0.20096,0.0248 -0.31367,0.0364 -0.25241,0.0185 -0.50625,0.0381 -0.75961,0.0318 -0.0496,-0.001 -0.0991,-0.005 -0.14873,-0.008 -0.26401,-0.015 -0.52646,-0.0464 -0.78721,-0.0896 -0.15738,-0.0263 -0.0782,-0.0133 -0.23753,-0.0391 0,0 0.18871,-0.13257 0.18871,-0.13257 v 0 c 0.15987,0.0256 0.0805,0.0126 0.23825,0.0388 0.25881,0.0434 0.51929,0.0761 0.7815,0.0905 0.0493,0.002 0.0985,0.006 0.14785,0.007 0.2526,0.005 0.50558,-0.0136 0.75719,-0.0328 0.1136,-0.0121 0.19966,-0.0199 0.31256,-0.0375 0.21163,-0.033 0.41878,-0.0876 0.62313,-0.1512 0.27077,-0.0875 0.54109,-0.17657 0.81431,-0.25625 0.10735,-0.0272 0.21707,-0.0528 0.327,-0.0235 0.0737,0.0231 0.14126,0.0601 0.20449,0.10442 0.12966,0.083 0.26302,0.16118 0.40371,0.22415 0.24665,0.11306 0.50294,0.20267 0.76083,0.28652 0.0232,0.007 0.24829,0.076 0.27355,0.0831 0.18491,0.0525 0.37383,0.0908 0.56454,0.11473 0.13889,0.0152 0.20166,0.0239 0.34355,0.0315 0.27011,0.0145 0.54112,0.009 0.8112,-0.002 0.41326,-0.023 0.8276,-0.0581 1.22973,-0.16193 0.17234,-0.0464 0.1962,-0.0508 0.36457,-0.10424 0.21482,-0.0682 0.42541,-0.14854 0.63816,-0.22273 0.14057,-0.0479 0.28128,-0.0969 0.42651,-0.12929 0.14878,-0.0332 0.30074,-0.05 0.45321,-0.0492 0.0564,0.002 0.113,0.003 0.16933,0.007 0.31324,0.0239 0.62408,0.0864 0.92232,0.18459 0.0579,0.0219 0.11652,0.0421 0.17381,0.0656 0.25022,0.10278 0.4864,0.2361 0.71796,0.37498 0.14085,0.0889 0.28225,0.17691 0.4194,0.27145 0,0 -0.20803,0.13406 -0.20803,0.13406 z"
       inkscape:connector-curvature="0" />
    <path
       style="opacity:1;fill:#ffffff;fill-opacity:1;stroke:none;stroke-width:0.5;stroke-miterlimit:4;stroke-dasharray:none;stroke-dashoffset:0;stroke-opacity:0.19607843"
       id="path6281"
       d="m 149.97959,185.03077 c 0.16036,0.0315 0.31504,0.0866 0.46998,0.1376 0.16229,0.0555 0.32764,0.10135 0.49121,0.15276 0.0468,0.0147 0.0933,0.0305 0.13999,0.0457 0.05,0.0157 0.0999,0.0313 0.1499,0.047 0.31847,0.10168 0.64646,0.16467 0.97708,0.20995 0.20495,0.0192 0.41296,0.0494 0.61895,0.0249 0.0335,-0.004 0.0665,-0.0111 0.0997,-0.0166 0.16545,-0.0353 0.32486,-0.0928 0.48875,-0.13408 0.11239,-0.0277 0.22786,-0.0365 0.34324,-0.0343 0.17737,0.0112 0.35196,0.0478 0.52717,0.076 0.16448,0.0244 0.33028,0.0381 0.49595,0.0512 0,0 -0.1872,0.13369 -0.1872,0.13369 v 0 c -0.16648,-0.0141 -0.3332,-0.0273 -0.49861,-0.0514 -0.17664,-0.0269 -0.35311,-0.0616 -0.53203,-0.0681 -0.11396,0.001 -0.22786,0.0102 -0.33867,0.0385 -0.16224,0.0419 -0.32116,0.0965 -0.48577,0.12899 -0.0335,0.005 -0.0667,0.0112 -0.10041,0.0145 -0.2053,0.02 -0.41167,-0.0119 -0.61536,-0.0333 -0.33071,-0.0487 -0.65882,-0.11415 -0.97852,-0.2133 -0.26246,-0.0802 -0.5252,-0.15937 -0.78697,-0.24178 -0.1577,-0.0497 -0.31584,-0.10376 -0.48025,-0.12625 0,0 0.20186,-0.14163 0.20186,-0.14163 z"
       inkscape:connector-curvature="0" />
    <path
       style="opacity:1;fill:#0000ff;fill-opacity:1;stroke:none;stroke-width:0.5;stroke-miterlimit:4;stroke-dasharray:none;stroke-dashoffset:0;stroke-opacity:0.19607843"
       id="path6283"
       d="m 162.54469,185.45334 c -0.0974,0.0359 -0.001,5.3e-4 -0.12557,0.0455 -0.0327,0.0118 -0.0651,0.0246 -0.0982,0.0356 -0.1511,0.0503 -0.30588,0.0873 -0.46031,0.1255 -0.39783,0.0943 -0.80194,0.15854 -1.2083,0.20156 -0.21293,0.0175 -0.42672,0.0382 -0.64054,0.0246 -0.11492,-0.007 -0.14915,-0.0151 -0.26092,-0.0325 -0.22105,-0.0425 -0.43141,-0.12251 -0.63881,-0.20775 -0.17189,-0.0757 -0.34115,-0.15706 -0.5122,-0.23471 -0.0974,-0.044 -0.19874,-0.0785 -0.30371,-0.0988 -0.0719,-0.0109 -0.14486,-0.0113 -0.21734,-0.008 -0.15517,0.0183 -0.30821,0.0502 -0.46002,0.0866 -0.13531,0.0273 -0.26723,0.0671 -0.39918,0.10696 0,0 0.18905,-0.14594 0.18905,-0.14594 v 0 c 0.13131,-0.039 0.26316,-0.0758 0.39735,-0.10382 0.1547,-0.0363 0.31057,-0.0701 0.46871,-0.0874 0.0743,-0.003 0.14907,-0.003 0.22224,0.0123 0.10398,0.0246 0.20453,0.0609 0.30096,0.10708 0.16943,0.0786 0.33628,0.16272 0.50795,0.2364 0.20538,0.0846 0.41422,0.16286 0.63313,0.20502 0.11228,0.0175 0.14132,0.0246 0.25699,0.0319 0.21112,0.0133 0.42243,-0.006 0.63275,-0.0227 0.406,-0.0425 0.81008,-0.10548 1.20655,-0.20418 0.2381,-0.0618 0.47622,-0.12623 0.70186,-0.22594 0,0 -0.19249,0.15299 -0.19249,0.15299 z"
       inkscape:connector-curvature="0" />
    <path
       style="opacity:1;fill:#0000ff;fill-opacity:1;stroke:none;stroke-width:0.5;stroke-miterlimit:4;stroke-dasharray:none;stroke-dashoffset:0;stroke-opacity:0.19607843"
       id="path6285"
       d="m 150.5019,184.8285 c 0.12759,-0.0407 0.26196,-0.0477 0.39468,-0.0557 0.14491,-0.008 0.29112,-0.008 0.43542,0.01 0.0955,0.0118 0.14719,0.0256 0.24196,0.0465 0.28844,0.0746 0.56966,0.17257 0.84915,0.27495 0.21951,0.0873 0.44137,0.16797 0.66595,0.24117 0.20453,0.0645 0.41822,0.0819 0.63103,0.0939 0.18025,0.008 0.36069,0.0138 0.54002,-0.009 0.11788,-0.0164 0.23504,-0.0372 0.35328,-0.051 0.13201,-0.0118 0.26437,-0.0202 0.39671,-0.0108 0.11255,0.0132 0.22463,0.0296 0.33731,0.0416 0,0 -0.19493,0.13841 -0.19493,0.13841 v 0 c -0.11274,-0.0126 -0.22505,-0.0288 -0.33798,-0.0397 -0.1313,-0.007 -0.26278,-1.2e-4 -0.39348,0.0139 -0.11801,0.0151 -0.23497,0.037 -0.35317,0.0506 -0.17832,0.0182 -0.35729,0.008 -0.53603,8e-4 -0.21478,-0.0128 -0.43083,-0.0305 -0.63684,-0.0973 -0.22282,-0.074 -0.44107,-0.16013 -0.65929,-0.24663 -0.27914,-0.10304 -0.56077,-0.20017 -0.85033,-0.27019 -0.0979,-0.02 -0.14393,-0.0318 -0.24207,-0.0428 -0.14456,-0.0162 -0.29066,-0.0147 -0.43558,-0.005 -0.13447,0.0103 -0.2734,0.018 -0.3992,0.0712 0,0 0.19339,-0.15469 0.19339,-0.15469 z"
       inkscape:connector-curvature="0" />
    <path
       style="opacity:1;fill:#0000ff;fill-opacity:1;stroke:none;stroke-width:0.5;stroke-miterlimit:4;stroke-dasharray:none;stroke-dashoffset:0;stroke-opacity:0.19607843"
       id="path6287"
       d="m 158.53313,186.82619 c -0.15285,-0.0766 -0.30204,-0.16015 -0.45102,-0.24398 -0.23472,-0.13865 -0.45623,-0.2981 -0.67649,-0.45832 -0.18356,-0.1376 -0.37396,-0.26553 -0.56146,-0.39759 -0.0952,-0.0623 -0.18529,-0.1327 -0.28276,-0.19159 -0.0618,-0.0373 -0.0912,-0.0511 -0.15561,-0.0841 -0.17806,-0.0889 -0.36568,-0.15594 -0.55718,-0.209 -0.17888,-0.0511 -0.36227,-0.0827 -0.54373,-0.12239 -0.19224,-0.0458 -0.38314,-0.097 -0.57649,-0.138 -0.028,-0.006 -0.0561,-0.0118 -0.0842,-0.0177 0,0 0.19433,-0.13494 0.19433,-0.13494 v 0 c 0.0276,0.006 0.0552,0.0124 0.0829,0.0186 0.19302,0.043 0.38421,0.0937 0.57703,0.13757 0.18192,0.0386 0.36484,0.0732 0.54391,0.12412 0.19215,0.056 0.38085,0.12371 0.5606,0.21235 0.0647,0.0335 0.0954,0.0479 0.15754,0.0856 0.0975,0.0591 0.18763,0.12945 0.28175,0.19356 0.18557,0.13358 0.37356,0.26379 0.55642,0.40111 0.21934,0.16061 0.4402,0.32063 0.67729,0.45442 0.15159,0.083 0.30327,0.16679 0.46268,0.23403 0,0 -0.20552,0.13631 -0.20552,0.13631 z"
       inkscape:connector-curvature="0" />
    <path
       style="opacity:1;fill:#0000ff;fill-opacity:1;stroke:none;stroke-width:0.5;stroke-miterlimit:4;stroke-dasharray:none;stroke-dashoffset:0;stroke-opacity:0.19607843"
       id="path6289"
       d="m 156.5915,183.88083 c 0.13373,-0.0445 0.27124,-0.0738 0.40929,-0.101 0.22138,-0.0402 0.44603,-0.0534 0.67044,-0.0625 0.24857,-0.005 0.49476,0.0359 0.73861,0.0795 0.24041,0.0443 0.47703,0.10606 0.71369,0.16672 0.18284,0.0546 0.36917,0.0927 0.5587,0.11354 0.15811,0.0178 0.31377,0.0153 0.47031,-0.0121 0.0233,-0.004 0.0466,-0.008 0.0698,-0.013 0.0819,-0.0166 0.16304,-0.0338 0.24591,-0.0454 0.0708,-0.01 0.15088,-0.0174 0.22161,-0.0248 0.14275,-0.0123 0.2851,-0.0286 0.42751,-0.0442 0,0 -0.18089,0.13452 -0.18089,0.13452 v 0 c -0.14397,0.0164 -0.28791,0.0331 -0.43209,0.0475 -0.0821,0.01 -0.14327,0.0158 -0.22415,0.0283 -0.0836,0.0129 -0.16574,0.0316 -0.24864,0.0479 -0.0233,0.005 -0.0466,0.008 -0.07,0.0126 -0.15666,0.0241 -0.31446,0.024 -0.47196,0.005 -0.18931,-0.0227 -0.37517,-0.0627 -0.55772,-0.11822 -0.23527,-0.0619 -0.47074,-0.12436 -0.71051,-0.16671 -0.24307,-0.0427 -0.48859,-0.0815 -0.73623,-0.0751 -0.22513,0.01 -0.45043,0.0252 -0.67207,0.0683 -0.1411,0.0291 -0.28082,0.0626 -0.41751,0.10863 0,0 0.19584,-0.14974 0.19584,-0.14974 z"
       inkscape:connector-curvature="0" />
    <path
       style="opacity:1;fill:#000080;fill-opacity:1;stroke:none;stroke-width:0.5;stroke-miterlimit:4;stroke-dasharray:none;stroke-dashoffset:0;stroke-opacity:0.19607843"
       id="path6291"
       d="m 154.43083,184.24432 c -0.0848,0.0466 -0.16851,0.0954 -0.25448,0.13993 -0.0182,0.009 -0.15154,0.0577 -0.15887,0.0603 -0.11252,0.0403 -0.22593,0.0781 -0.33878,0.1175 -0.25899,0.0912 -0.52859,0.1427 -0.79916,0.18464 -0.3235,0.0415 -0.65033,0.0438 -0.97591,0.0526 -0.3405,0.009 -0.6811,0.0113 -1.02169,0.0133 -0.198,-7.9e-4 -0.3961,0.004 -0.59409,8e-4 -0.1278,-0.002 -0.19964,-0.007 -0.32809,-0.0127 -0.39498,-0.0244 -0.78934,-0.0577 -1.18392,-0.0877 -0.42693,-0.0337 -0.8539,-0.0664 -1.28111,-0.0964 -0.25444,-0.0186 -0.5094,-0.0276 -0.76442,-0.0326 0,0 0.18572,-0.13422 0.18572,-0.13422 v 0 c 0.25292,0.008 0.50581,0.0178 0.75806,0.0385 0.42529,0.0335 0.85039,0.0695 1.27589,0.10009 0.39686,0.0285 0.79357,0.0597 1.19083,0.082 0.30764,0.0129 0.61531,0.0109 0.92317,0.01 0.33942,-5.3e-4 0.67888,-0.002 1.0182,-0.0114 0.32681,-0.01 0.6549,-0.0144 0.97933,-0.0587 0.27069,-0.0431 0.54005,-0.0965 0.79871,-0.18949 0.11399,-0.0399 0.22862,-0.0782 0.34171,-0.12055 0.0316,-0.0118 0.0631,-0.024 0.0943,-0.0367 0.0236,-0.01 0.0908,-0.045 0.0702,-0.0299 -0.0522,0.0383 -0.11092,0.0669 -0.16638,0.10036 0,0 0.23073,-0.0895 0.23073,-0.0895 z"
       inkscape:connector-curvature="0" />
    <rect
       style="opacity:1;fill:url(#linearGradient6441);fill-opacity:1;stroke:none;stroke-width:0.5;stroke-miterlimit:4;stroke-dasharray:none;stroke-dashoffset:0;stroke-opacity:0.19607843"
       id="rect6293"
       width="0.30067819"
       height="5.4957294"
       x="154.53191"
       y="177.49712"
       ry="0.1503391" />
    <path
       style="opacity:1;fill:url(#linearGradient6439);fill-opacity:1;stroke:none;stroke-width:0.5;stroke-miterlimit:4;stroke-dasharray:none;stroke-dashoffset:0;stroke-opacity:0.19607843"
       id="path6295"
       d="m 155.67057,177.34376 c -0.0427,0.0336 -0.0866,0.0654 -0.13225,0.0948 -0.10345,0.0916 -0.22964,0.12656 -0.34661,0.18811 -0.0415,0.021 -0.0848,0.0376 -0.1268,0.0575 -0.058,0.0226 -0.1155,0.0461 -0.17394,0.0676 -0.0567,0.017 -0.11038,0.0423 -0.16573,0.0631 -0.0502,0.0198 -0.099,0.0426 -0.14783,0.0656 -0.0477,0.0187 -0.0945,0.0389 -0.14091,0.0607 -0.0498,0.0214 -0.10064,0.0419 -0.15236,0.0588 -0.0482,0.0198 -0.0969,0.0385 -0.14484,0.0589 -0.046,0.0188 -0.0917,0.0395 -0.13865,0.0559 -0.0502,0.0153 -0.0987,0.0343 -0.14929,0.0482 -0.0687,0.0262 -0.14061,0.0423 -0.2099,0.067 -0.0783,0.0239 -0.15495,0.0529 -0.23399,0.0741 -0.0908,0.0261 -0.18264,0.0483 -0.27358,0.074 -0.0957,0.0208 -0.18888,0.0509 -0.28004,0.0864 -0.0996,0.0344 -0.19518,0.0791 -0.29483,0.11325 -0.0844,0.0298 -0.16561,0.067 -0.24738,0.10314 -0.0564,0.0242 -0.11261,0.0487 -0.16718,0.0769 -0.0217,0.0125 -0.045,0.0214 -0.0668,0.0338 -0.007,0.004 -0.0268,0.0161 -0.02,0.0122 0.19127,-0.1089 0.25263,-0.15209 0.17257,-0.0968 -0.0366,0.0254 -0.0722,0.0522 -0.10783,0.0791 -0.051,0.0378 -0.0992,0.0795 -0.1467,0.1215 -0.0584,0.0536 -0.10821,0.11548 -0.15665,0.17801 -0.0348,0.0489 -0.0728,0.0957 -0.10495,0.14645 -0.0207,0.0333 -0.0364,0.0692 -0.0526,0.10475 -0.014,0.036 -0.0256,0.0728 -0.0357,0.11003 -0.0115,0.0365 -0.018,0.074 -0.0215,0.11203 -0.002,0.0435 -0.003,0.0869 -0.007,0.13027 -0.006,0.0526 -0.009,0.10543 -0.0109,0.15832 -0.001,0.0474 -0.001,0.0948 -0.002,0.14222 -0.002,0.0462 1.8e-4,0.0918 0.007,0.13746 0.013,0.0357 0.0265,0.0711 0.0395,0.10681 0.0171,0.0374 0.0381,0.0729 0.0549,0.11046 0.0273,0.0522 0.0649,0.0988 0.106,0.14057 0.0541,0.0521 0.11192,0.10044 0.17337,0.14365 0.0583,0.0425 0.11763,0.0834 0.17529,0.12682 0.0637,0.0463 0.12581,0.0948 0.18823,0.14283 0.0803,0.0595 0.15554,0.12541 0.23393,0.18735 0.0734,0.0581 0.1543,0.10531 0.2313,0.15813 0.0717,0.0483 0.14168,0.0987 0.21106,0.1502 0.0662,0.0513 0.13432,0.0997 0.20132,0.14983 0.0656,0.0454 0.1293,0.0932 0.19297,0.14115 0.0611,0.0435 0.11895,0.0914 0.17909,0.13621 0.0644,0.0471 0.12453,0.0995 0.1854,0.15093 0.0539,0.0454 0.10244,0.0964 0.15658,0.14148 0.0436,0.035 0.0857,0.0718 0.12653,0.10993 0.0362,0.0287 0.0679,0.0625 0.10542,0.0894 0.0329,0.023 0.0648,0.0471 0.0966,0.0715 0.0167,0.01 0.0315,0.0227 0.0491,0.031 0.006,0.003 0.0121,0.004 0.0177,0.007 0.0123,0.006 0.0234,0.0144 0.0352,0.0214 0.0267,0.0204 0.0554,0.0384 0.0845,0.0553 0.0261,0.02 0.0555,0.0345 0.0846,0.0496 0,0 -0.20721,0.13607 -0.20721,0.13607 v 0 c -0.0297,-0.0149 -0.0579,-0.0324 -0.0854,-0.0511 -0.0286,-0.0176 -0.0574,-0.035 -0.0841,-0.0554 -0.0346,-0.0205 -0.0719,-0.036 -0.10335,-0.0616 -0.0319,-0.0242 -0.0641,-0.048 -0.0967,-0.0713 -0.0369,-0.029 -0.0696,-0.0626 -0.10608,-0.0921 -0.0404,-0.0379 -0.0819,-0.0744 -0.12477,-0.10951 -0.0536,-0.0455 -0.1018,-0.0967 -0.15541,-0.1422 -0.0608,-0.0509 -0.12077,-0.103 -0.18514,-0.14945 -0.06,-0.045 -0.11806,-0.0926 -0.17896,-0.13642 -0.0635,-0.0481 -0.12762,-0.0951 -0.19245,-0.14135 -0.0669,-0.0501 -0.1354,-0.0981 -0.20115,-0.14985 -0.069,-0.0515 -0.13947,-0.10076 -0.21046,-0.14948 -0.0774,-0.0531 -0.15833,-0.10107 -0.23151,-0.1601 -0.0777,-0.0627 -0.15368,-0.12755 -0.23436,-0.18643 -0.063,-0.0475 -0.12553,-0.0956 -0.18942,-0.14188 -0.0575,-0.0432 -0.11667,-0.0839 -0.17452,-0.12665 -0.0618,-0.0452 -0.1214,-0.0935 -0.1762,-0.14701 -0.0427,-0.0444 -0.0831,-0.0922 -0.1117,-0.14706 -0.0174,-0.038 -0.0395,-0.0736 -0.0567,-0.11164 -0.0135,-0.0372 -0.0268,-0.0745 -0.0419,-0.11107 -0.007,-0.047 -0.0102,-0.0938 -0.008,-0.14141 -2.1e-4,-0.0476 -5.2e-4,-0.0952 8e-4,-0.14271 0.002,-0.0535 0.005,-0.10691 0.0104,-0.16013 0.005,-0.043 0.006,-0.0858 0.006,-0.12911 0.003,-0.0395 0.008,-0.0787 0.0199,-0.11662 0.0111,-0.0378 0.0203,-0.0759 0.0342,-0.11293 0.0152,-0.0368 0.0313,-0.0737 0.052,-0.10761 0.0285,-0.0542 0.0722,-0.0991 0.10542,-0.15037 0.0491,-0.0629 0.0979,-0.12612 0.15496,-0.18211 0.0469,-0.0422 0.0948,-0.0832 0.14341,-0.12346 0.0376,-0.0237 0.07,-0.0551 0.10813,-0.0784 0.10236,-0.0796 0.22104,-0.13545 0.33617,-0.19408 0.0548,-0.0263 0.11036,-0.0509 0.16633,-0.0746 0.0815,-0.035 0.16223,-0.072 0.24649,-0.10023 0.0991,-0.036 0.1956,-0.079 0.2951,-0.11419 0.092,-0.0342 0.18581,-0.0625 0.28141,-0.0847 0.0911,-0.0253 0.18294,-0.0478 0.27372,-0.0742 0.0787,-0.0236 0.15607,-0.0511 0.23432,-0.076 0.0704,-0.0231 0.14212,-0.0419 0.21185,-0.067 0.05,-0.0151 0.0987,-0.0341 0.14848,-0.0501 0.0462,-0.0186 0.0926,-0.0366 0.13824,-0.0566 0.0484,-0.0193 0.0963,-0.0402 0.1455,-0.0576 0.051,-0.0187 0.10216,-0.0376 0.1513,-0.0609 0.0465,-0.0205 0.0932,-0.0405 0.14002,-0.0603 0.0492,-0.0229 0.0986,-0.0453 0.14933,-0.0646 0.0547,-0.0216 0.10899,-0.044 0.16496,-0.0621 0.0585,-0.0218 0.11616,-0.0457 0.17372,-0.0698 0.0427,-0.0189 0.0852,-0.0379 0.12697,-0.0587 0.0885,-0.0419 0.2949,-0.14365 -0.0756,0.0555 0.045,-0.029 0.0894,-0.0583 0.13152,-0.0913 0,0 0.22998,-0.0928 0.22998,-0.0928 z"
       inkscape:connector-curvature="0" />
    <path
       style="opacity:1;fill:url(#linearGradient6437);fill-opacity:1;stroke:none;stroke-width:0.5;stroke-miterlimit:4;stroke-dasharray:none;stroke-dashoffset:0;stroke-opacity:0.19607843"
       id="path6297"
       d="m 154.46164,182.97279 c -0.0574,-0.0295 -0.11464,-0.058 -0.16709,-0.0958 -0.0487,-0.0332 -0.0939,-0.0712 -0.13494,-0.11351 -0.0395,-0.038 -0.076,-0.0786 -0.11267,-0.11918 -0.0247,-0.0343 -0.0562,-0.0633 -0.0797,-0.0982 -0.0217,-0.0303 -0.0421,-0.062 -0.0677,-0.0892 -0.0235,-0.0271 -0.0518,-0.0489 -0.0786,-0.0725 -0.0286,-0.0217 -0.059,-0.0406 -0.0896,-0.0593 -0.031,-0.021 -0.0586,-0.0463 -0.0887,-0.0685 -0.0398,-0.0286 -0.0786,-0.0584 -0.11736,-0.0885 -0.0574,-0.0376 -0.11214,-0.0786 -0.16651,-0.12043 -0.062,-0.0481 -0.12216,-0.0985 -0.18584,-0.14441 -0.0551,-0.0362 -0.10379,-0.081 -0.15719,-0.11936 -0.0429,-0.0337 -0.0872,-0.0654 -0.13075,-0.0982 -0.0465,-0.0326 -0.0876,-0.0716 -0.13123,-0.10775 -0.0563,-0.0501 -0.11375,-0.0989 -0.17104,-0.14789 -0.0535,-0.0429 -0.0978,-0.0954 -0.14729,-0.14253 -0.0412,-0.0404 -0.0794,-0.0836 -0.11674,-0.1276 -0.0318,-0.0389 -0.053,-0.0848 -0.0772,-0.12857 -0.0301,-0.0527 -0.0573,-0.10696 -0.087,-0.1598 -0.0401,-0.0692 -0.0764,-0.14065 -0.11386,-0.21134 -0.0376,-0.0763 -0.0698,-0.1551 -0.10208,-0.23374 -0.0331,-0.0718 -0.059,-0.14637 -0.0868,-0.22025 -0.0249,-0.0628 -0.0463,-0.12685 -0.0679,-0.19085 -0.0209,-0.0623 -0.0256,-0.12811 -0.0401,-0.19196 -0.0153,-0.0687 -0.0283,-0.1377 -0.0369,-0.20755 -0.006,-0.0599 -0.007,-0.12002 -0.008,-0.18011 -5.3e-4,-0.0503 -0.001,-0.10046 0.004,-0.1505 0.005,-0.0493 0.0201,-0.0972 0.04,-0.14238 0.0154,-0.0345 0.0361,-0.066 0.0591,-0.0958 0.0265,-0.0324 0.0551,-0.0627 0.0845,-0.0924 0.0313,-0.0294 0.0625,-0.059 0.0929,-0.0894 0.0892,-0.0748 0.20299,-0.12453 0.29978,-0.18263 0.0623,-0.0374 -0.12593,0.0727 -0.18933,0.10826 -0.007,0.004 0.0126,-0.008 0.0189,-0.0126 0.0763,-0.0443 0.15377,-0.0867 0.22888,-0.13298 0.0642,-0.0396 -0.13068,0.0755 -0.19626,0.11288 -0.005,0.003 0.009,-0.006 0.0136,-0.009 0.0752,-0.0433 0.15065,-0.0862 0.22609,-0.1291 0.005,-0.003 0.0183,-0.01 0.0138,-0.007 -0.0659,0.038 -0.13201,0.0758 -0.19802,0.11364 0.10216,-0.0901 0.19761,-0.11614 0.30771,-0.16299 0.033,-0.0145 0.0657,-0.0266 0.10139,-0.0326 0.006,-5.3e-4 0.0114,-0.001 0.0172,-0.002 0,0 -0.19827,0.14863 -0.19827,0.14863 v 0 c -0.005,0.001 -0.0108,0.002 -0.0163,0.003 -0.0341,0.009 -0.066,0.0231 -0.0987,0.0359 -0.0913,0.0339 -0.25232,0.13089 0.11829,-0.0791 -0.0756,0.0435 -0.15101,0.0873 -0.22672,0.1306 -0.005,0.003 -0.0185,0.01 -0.014,0.007 0.0661,-0.0387 0.1325,-0.0769 0.19876,-0.11538 0.005,-0.003 -0.009,0.006 -0.0142,0.008 -0.0755,0.0442 -0.15184,0.0871 -0.22648,0.13276 -0.0635,0.0389 0.12876,-0.0749 0.19314,-0.11237 -0.0944,0.0613 -0.0127,0.009 -0.25072,0.14896 -0.0605,0.0387 0.12457,-0.0716 0.18666,-0.10781 0.0359,-0.0209 -0.10489,0.0555 -0.067,0.042 -0.0563,0.049 0.0186,-0.018 -0.0326,0.0336 -0.0191,0.0192 -0.0417,0.0354 -0.0597,0.056 -0.0321,0.026 -0.0574,0.0585 -0.0856,0.0887 -0.0238,0.0279 -0.0457,0.0578 -0.0618,0.0908 -0.0222,0.0416 -0.0386,0.0882 -0.0439,0.13503 -0.006,0.0493 -0.007,0.0984 -0.006,0.148 5e-5,0.0594 5.3e-4,0.11895 0.006,0.1782 0.007,0.0693 0.0197,0.13742 0.0354,0.20523 0.003,0.012 0.0128,0.0558 0.0148,0.0674 0.007,0.041 0.009,0.083 0.0245,0.12221 0.0212,0.0639 0.042,0.1278 0.0665,0.19052 0.0281,0.0735 0.0525,0.14849 0.0857,0.22005 0.0322,0.0778 0.0637,0.15595 0.10098,0.2315 0.0383,0.07 0.0731,0.14194 0.11438,0.21031 0.0305,0.0526 0.0584,0.10659 0.0889,0.15917 0.0233,0.0424 0.0438,0.0869 0.0746,0.12449 0.0364,0.0435 0.0739,0.0862 0.11434,0.12602 0.0487,0.0472 0.0932,0.0988 0.14584,0.14183 0.057,0.0491 0.11459,0.0976 0.17129,0.14712 0.0437,0.0358 0.086,0.0731 0.13193,0.10614 0.0433,0.0329 0.0874,0.0646 0.13004,0.0984 0.0521,0.0397 0.10187,0.0827 0.15599,0.1199 0.0633,0.0467 0.12347,0.0974 0.18614,0.14494 0.0547,0.0418 0.11069,0.0813 0.16776,0.11971 0.0391,0.0298 0.0788,0.0587 0.11859,0.0875 0.0289,0.0224 0.0569,0.046 0.0873,0.0663 0.0318,0.0191 0.0631,0.0394 0.0918,0.0629 0.028,0.0238 0.0561,0.0471 0.0804,0.0749 0.0254,0.0289 0.0472,0.0607 0.0693,0.0922 0.0234,0.0336 0.0533,0.0626 0.0773,0.0959 0.0361,0.0405 0.072,0.0811 0.11142,0.1186 0.0407,0.0406 0.0848,0.0775 0.13216,0.11006 0.0517,0.0355 0.10677,0.0652 0.16497,0.0886 0,0 -0.20477,0.13894 -0.20477,0.13894 z"
       inkscape:connector-curvature="0" />
    <path
       style="opacity:1;fill:url(#linearGradient6435);fill-opacity:1;stroke:none;stroke-width:0.5;stroke-miterlimit:4;stroke-dasharray:none;stroke-dashoffset:0;stroke-opacity:0.19607843"
       id="path6299"
       d="m 152.92893,178.52213 c -0.0655,-0.006 -0.12068,0.002 -0.18163,0.0262 -0.0837,0.0391 -0.16816,0.0772 -0.24808,0.1237 -0.13654,0.0777 0.0833,-0.0483 0.12546,-0.0715 0.0121,-0.007 -0.0236,0.0146 -0.0351,0.0223 -0.0268,0.0178 -0.0515,0.0374 -0.0761,0.0581 -0.0354,0.0275 -0.0502,0.0669 -0.0674,0.10641 -0.0225,0.0454 -0.0425,0.0918 -0.0575,0.14011 -0.0155,0.0453 -0.0261,0.0916 -0.0315,0.13916 -0.004,0.0492 -0.004,0.0986 -0.004,0.14794 -0.002,0.0426 -0.009,0.0848 -0.0124,0.12722 -0.003,0.0405 -0.003,0.0811 -0.004,0.12168 -2.7e-4,0.0495 -1.3e-4,0.0989 -2e-4,0.14842 -2.3e-4,0.0572 -2e-5,0.11445 -5.3e-4,0.17167 -7e-5,0.0615 1.7e-4,0.12293 1.4e-4,0.18439 5.3e-4,0.0564 0.0195,0.10986 0.0322,0.16417 0.0157,0.0557 0.0307,0.11158 0.0508,0.16588 0.0205,0.0516 0.0414,0.10307 0.0633,0.15412 0.0173,0.0466 0.0351,0.0928 0.0577,0.13716 0.0207,0.0424 0.041,0.0851 0.062,0.12739 0.0184,0.0452 0.0386,0.0897 0.0597,0.13374 0.0237,0.0506 0.052,0.0984 0.0799,0.14662 0.0267,0.0394 0.0579,0.0751 0.0874,0.11245 0.0152,0.0224 0.0308,0.0445 0.0457,0.0671 0,0 -0.21299,0.12502 -0.21299,0.12502 v 0 c -0.0151,-0.0218 -0.0304,-0.0434 -0.0451,-0.0654 -0.0299,-0.0383 -0.0611,-0.0756 -0.0879,-0.11625 -0.028,-0.0489 -0.0578,-0.0966 -0.0813,-0.14799 -0.0212,-0.0439 -0.0422,-0.0878 -0.0602,-0.13314 -0.0208,-0.0423 -0.0406,-0.0852 -0.062,-0.12724 -0.0221,-0.0451 -0.0406,-0.0916 -0.0576,-0.13891 -0.0219,-0.0515 -0.0432,-0.10325 -0.0636,-0.15535 -0.0201,-0.0554 -0.0362,-0.11187 -0.0523,-0.16851 -0.0129,-0.0561 -0.0324,-0.11119 -0.0345,-0.16923 -3e-5,-0.0615 2.1e-4,-0.12302 1.4e-4,-0.18453 -2.7e-4,-0.0571 -2e-4,-0.11413 -5.3e-4,-0.1712 -1.4e-4,-0.0494 -1.2e-4,-0.0989 -2.4e-4,-0.14834 -1.7e-4,-0.041 5e-5,-0.0821 0.002,-0.12309 0.003,-0.0422 0.01,-0.0839 0.0144,-0.12596 8e-5,-0.05 -5.3e-4,-0.10001 0.003,-0.1499 0.004,-0.0491 0.013,-0.0971 0.03,-0.14345 0.0132,-0.0498 0.0327,-0.0972 0.0549,-0.14359 0.0213,-0.0392 0.0284,-0.0856 0.0646,-0.11599 0.11881,-0.10622 0.26476,-0.17428 0.40198,-0.25373 0.0818,-0.045 0.16638,-0.0856 0.25238,-0.12173 0.0669,-0.0211 0.11999,-0.0233 0.18943,-0.0215 0,0 -0.20059,0.14574 -0.20059,0.14574 z"
       inkscape:connector-curvature="0" />
    <path
       style="opacity:1;fill:url(#linearGradient6433);fill-opacity:1;stroke:none;stroke-width:0.5;stroke-miterlimit:4;stroke-dasharray:none;stroke-dashoffset:0;stroke-opacity:0.19607843"
       id="path6301"
       d="m 152.91095,181.0367 c 0.0302,0.04 0.0518,0.0857 0.081,0.12632 0.0204,0.0333 0.047,0.0612 0.0739,0.0891 0.0217,0.0276 0.0373,0.0596 0.0547,0.0901 0.016,0.0208 0.0303,0.0427 0.0446,0.0647 0,0 -0.21437,0.1252 -0.21437,0.1252 v 0 c -0.0144,-0.0224 -0.0288,-0.0447 -0.0446,-0.0661 -0.0166,-0.0286 -0.0314,-0.0587 -0.0517,-0.0849 -0.0276,-0.0289 -0.0544,-0.0584 -0.0752,-0.0927 -0.0278,-0.0407 -0.049,-0.086 -0.0809,-0.12393 0,0 0.21263,-0.12767 0.21263,-0.12767 z"
       inkscape:connector-curvature="0" />
    <path
       style="opacity:1;fill:url(#linearGradient6431);fill-opacity:1;stroke:none;stroke-width:0.5;stroke-miterlimit:4;stroke-dasharray:none;stroke-dashoffset:0;stroke-opacity:0.19607843"
       id="path6303"
       d="m 153.26217,181.86259 c -0.0553,-0.0493 -0.10559,-0.10368 -0.15677,-0.15711 -0.046,-0.0492 -0.0837,-0.10526 -0.12562,-0.15774 -0.0281,-0.0411 -0.0598,-0.0794 -0.0846,-0.12268 -0.0246,-0.0372 -0.0413,-0.0773 -0.0553,-0.11938 -0.0177,-0.0491 -0.0317,-0.0993 -0.049,-0.14854 -0.016,-0.0565 -0.0366,-0.11151 -0.0523,-0.16804 -0.018,-0.0633 -0.03,-0.12825 -0.0397,-0.19333 -0.0204,-0.0756 -0.0464,-0.14967 -0.0715,-0.22388 -0.0237,-0.0757 -0.0357,-0.15467 -0.0469,-0.23307 -0.007,-0.0833 -0.0154,-0.16661 -0.021,-0.25009 -0.005,-0.0865 -0.006,-0.1732 -0.007,-0.25986 2.6e-4,-0.0726 -0.008,-0.1449 -0.0124,-0.2173 -0.004,-0.0682 -0.005,-0.13627 -5.3e-4,-0.20441 0.006,-0.068 0.009,-0.1362 0.011,-0.20444 0.001,-0.0488 0.0106,-0.0964 0.0208,-0.14386 0.006,-0.039 0.0128,-0.0778 0.0227,-0.11607 0.01,-0.0306 0.0199,-0.0608 0.0356,-0.0888 0.0211,-0.0326 0.0445,-0.0636 0.0657,-0.0962 0.0228,-0.035 0.0483,-0.0682 0.0743,-0.10091 0.0207,-0.0234 0.0388,-0.0489 0.0581,-0.0735 0.0289,-0.0357 0.0667,-0.0618 0.10199,-0.0905 0,0 0.2289,-0.0926 0.2289,-0.0926 v 0 c -0.0337,0.0294 -0.071,0.0541 -0.10332,0.085 -0.0183,0.0254 -0.0362,0.0514 -0.0581,0.0738 -0.0247,0.0334 -0.0525,0.0644 -0.0755,0.0992 -0.0206,0.0326 -0.042,0.0648 -0.0655,0.0951 -0.0164,0.0265 -0.0291,0.0537 -0.0378,0.0838 -0.0144,0.0361 -0.018,0.0759 -0.0246,0.11398 -0.009,0.0468 -0.0217,0.0928 -0.0242,0.1407 -0.002,0.0686 -0.005,0.13724 -0.0106,0.20567 -0.006,0.0671 -0.005,0.13418 -0.001,0.20146 0.004,0.073 0.0123,0.14582 0.0121,0.21894 2.6e-4,0.0863 0.001,0.17269 0.006,0.25889 0.006,0.0828 0.0142,0.16534 0.0213,0.24802 0.0101,0.0771 0.0216,0.15474 0.044,0.22937 0.0253,0.0756 0.0523,0.15063 0.0744,0.22726 0.009,0.0641 0.0216,0.12791 0.0393,0.19021 0.015,0.056 0.0358,0.11039 0.0513,0.16634 0.018,0.0491 0.0322,0.0995 0.0501,0.14872 0.0132,0.0407 0.0299,0.079 0.0532,0.11503 0.0235,0.0425 0.0549,0.0796 0.0817,0.1199 0.0407,0.0524 0.0772,0.1083 0.12288,0.15671 0.0504,0.0533 0.10013,0.1079 0.15855,0.15268 0,0 -0.21028,0.1315 -0.21028,0.1315 z"
       inkscape:connector-curvature="0" />
    <path
       style="opacity:1;fill:url(#linearGradient6429);fill-opacity:1;stroke:none;stroke-width:0.5;stroke-miterlimit:4;stroke-dasharray:none;stroke-dashoffset:0;stroke-opacity:0.19607843"
       id="path6305"
       d="m 154.49869,182.51947 c 0.0396,0.0344 0.0716,0.0759 0.10374,0.11695 0.0193,0.025 0.031,0.0551 0.0514,0.0792 0.009,0.0108 0.0159,0.0229 0.0244,0.0341 0,0 -0.21367,0.12664 -0.21367,0.12664 v 0 c -0.008,-0.0111 -0.015,-0.0228 -0.0237,-0.0333 -0.0197,-0.0251 -0.0328,-0.0541 -0.0508,-0.0804 -0.0301,-0.0405 -0.0609,-0.0812 -0.10166,-0.11173 0,0 0.21028,-0.1315 0.21028,-0.1315 z"
       inkscape:connector-curvature="0" />
    <path
       style="opacity:1;fill:url(#linearGradient6427);fill-opacity:1;stroke:none;stroke-width:0.5;stroke-miterlimit:4;stroke-dasharray:none;stroke-dashoffset:0;stroke-opacity:0.19607843"
       id="path6307"
       d="m 152.30597,178.71471 c 0.0572,-0.0219 0.11559,-0.041 0.17486,-0.0564 0.0481,-0.0159 0.0944,-0.0363 0.14091,-0.0562 0.056,-0.0228 0.1126,-0.0442 0.16927,-0.0653 0.0536,-0.0217 0.1041,-0.0508 0.1602,-0.0657 0.0488,-0.0154 0.0962,-0.0349 0.14417,-0.0527 0.0419,-0.0101 0.0788,-0.0324 0.11868,-0.0476 0.0203,-0.002 0.0379,-0.0129 0.0572,-0.0174 0.0134,-0.003 0.0271,-0.005 0.0405,-0.007 0.0503,-0.0129 0.10164,-0.0218 0.15222,-0.0337 0.0453,-0.0123 0.0907,-0.0265 0.13503,-0.0422 0.0502,-0.0133 0.0999,-0.0283 0.14994,-0.0422 0.0477,-0.0116 0.0951,-0.0251 0.14112,-0.0422 0.0468,-0.014 0.0918,-0.0332 0.13888,-0.0466 0.0374,-0.0146 0.0757,-0.0267 0.11261,-0.0424 0.0312,-0.0136 0.0624,-0.0266 0.0937,-0.0402 0.006,-10e-4 0.0114,-0.002 0.017,-0.004 0.0123,-0.006 0.0171,-0.008 0.03,-0.0128 0.005,-0.002 0.0201,-0.007 0.0155,-0.005 -0.0661,0.0387 -0.26317,0.15651 -0.2003,0.11273 0.0717,-0.0499 0.15118,-0.0874 0.22677,-0.13117 -0.009,0.007 0.0429,-0.0217 0.0325,-0.0157 -0.42502,0.24461 -0.0667,0.0364 0.0572,-0.0358 0.0291,-0.0116 0.0557,-0.0271 0.0864,-0.034 0.0242,-0.0108 0.0481,-0.0196 0.0707,-0.0339 0.004,-0.002 0.009,-0.004 0.0131,-0.006 0.035,-0.0141 -0.005,0.005 0.0263,-0.0124 0.004,-0.002 0.0167,-0.008 0.0126,-0.006 -0.21933,0.12696 -0.26529,0.15807 -0.19093,0.10832 0.0747,-0.0429 0.14943,-0.0859 0.22414,-0.12882 0.004,-0.002 0.0163,-0.009 0.0122,-0.007 -0.0662,0.0382 -0.26432,0.15377 -0.19883,0.11432 0.0746,-0.045 0.15163,-0.0859 0.2263,-0.13086 0.0871,-0.0524 -0.6781,0.39298 0.0279,-0.0175 -0.0667,0.0385 -0.13351,0.0769 -0.2002,0.11541 -0.003,0.002 0.01,-0.006 0.0112,-0.002 0.003,0.006 0.007,0.012 0.006,0.0184 -5.3e-4,0.003 -0.0156,0.004 -0.0249,0.005 -0.0383,0.004 -0.0757,0.0144 -0.11249,0.0258 -0.0365,0.005 -0.0662,0.0273 -0.10141,0.0363 -0.0416,0.0165 -0.083,0.0332 -0.12451,0.0502 -0.0377,0.0198 -0.0782,0.0326 -0.11759,0.0485 -0.006,0.002 -0.0109,0.005 -0.0167,0.007 -0.0161,0.005 -0.033,0.008 -0.0492,0.0128 -0.0288,0.009 -0.0566,0.0185 -0.0858,0.0259 -0.0654,0.023 -0.13163,0.0435 -0.19708,0.0666 -0.075,0.0242 -0.14986,0.05 -0.22173,0.0823 -0.0747,0.023 -0.14936,0.0462 -0.22318,0.0719 -0.0715,0.0276 -0.14546,0.0472 -0.21966,0.0658 -0.0831,0.019 -0.16441,0.0447 -0.24739,0.0639 -0.0656,0.0126 -0.1298,0.0298 -0.19211,0.054 -0.0643,0.0259 -0.1282,0.0525 -0.19314,0.0768 -0.0807,0.0351 -0.16276,0.067 -0.24476,0.099 -0.0109,0.005 -0.0218,0.01 -0.0327,0.0144 0,0 0.19206,-0.15171 0.19206,-0.15171 v 0 c 0.0109,-0.005 0.0219,-0.009 0.0328,-0.0135 0.0821,-0.0316 0.16358,-0.0646 0.24465,-0.0987 0.0647,-0.0251 0.12856,-0.0525 0.19359,-0.0768 0.0634,-0.0223 0.12819,-0.0391 0.19413,-0.0519 0.0826,-0.0203 0.16449,-0.0435 0.24702,-0.0641 0.0734,-0.0194 0.14659,-0.0395 0.2176,-0.0667 0.0744,-0.0253 0.14981,-0.0476 0.22363,-0.0745 0.0727,-0.0292 0.14634,-0.056 0.22104,-0.0797 0.0665,-0.023 0.13291,-0.0463 0.20017,-0.0667 0.051,-0.0148 0.10234,-0.0296 0.15155,-0.0496 0.0389,-0.0157 0.0789,-0.0289 0.11658,-0.0477 0.0419,-0.0169 0.0835,-0.0349 0.12628,-0.0493 0.0335,-0.0134 0.0661,-0.0288 0.10181,-0.0358 0.0378,-0.0107 0.0766,-0.0188 0.11575,-0.0223 0.004,-2.6e-4 0.0258,-0.003 0.0305,9e-5 0.0104,0.007 0.0266,0.0275 0.01,0.0376 -0.0743,0.044 -0.14943,0.0864 -0.22415,0.12964 0.50636,-0.29542 -0.006,0.003 -0.0279,0.0175 -0.0637,0.0417 0.2634,-0.15304 0.19766,-0.11459 -0.0751,0.0439 -0.15038,0.0875 -0.22572,0.131 -0.004,0.002 -0.0168,0.009 -0.0127,0.007 0.0669,-0.0391 0.13409,-0.0779 0.20114,-0.11686 -0.0933,0.0579 -0.18718,0.1147 -0.28586,0.16244 -0.0239,0.0116 -0.0486,0.0216 -0.0739,0.0296 -0.0284,0.0106 -0.0558,0.0243 -0.0826,0.0383 -0.0746,0.0421 -0.10589,0.0598 0.18314,-0.10681 0.005,-0.003 -0.009,0.006 -0.0142,0.009 -0.0874,0.0514 -0.1701,0.103 -0.25851,0.14911 0.0657,-0.038 0.26523,-0.14775 0.19716,-0.11409 -0.10211,0.0505 -0.18314,0.11758 -0.28795,0.15223 -0.031,0.0138 -0.0626,0.0263 -0.094,0.0392 -0.0377,0.0136 -0.0748,0.0289 -0.11324,0.0404 -0.0463,0.0149 -0.0917,0.0327 -0.13811,0.0472 -0.0468,0.0152 -0.094,0.029 -0.14177,0.0408 -0.0498,0.0143 -0.0998,0.0279 -0.14925,0.0432 -0.0452,0.0145 -0.09,0.0309 -0.13669,0.0401 -0.051,0.0105 -0.10167,0.0222 -0.1524,0.0339 -0.0325,0.008 -0.0646,0.0177 -0.096,0.029 -0.0385,0.0174 -0.0776,0.0328 -0.11781,0.0459 -0.0481,0.0185 -0.0962,0.0368 -0.1455,0.0517 -0.0541,0.019 -0.10485,0.0459 -0.15842,0.0662 -0.0567,0.0215 -0.11368,0.0426 -0.16933,0.0668 -0.0466,0.0201 -0.0937,0.0394 -0.14262,0.0531 -0.0589,0.0167 -0.11787,0.0348 -0.17317,0.0613 0,0 0.19338,-0.15468 0.19338,-0.15468 z"
       inkscape:connector-curvature="0" />
    <path
       style="opacity:1;fill:url(#linearGradient6425);fill-opacity:1;stroke:none;stroke-width:0.5;stroke-miterlimit:4;stroke-dasharray:none;stroke-dashoffset:0;stroke-opacity:0.19607843"
       id="path6329"
       d="m 152.28932,178.76355 c -0.0347,0.0269 -0.0373,0.0686 -0.065,0.10246 -0.0197,0.0269 -0.0282,0.0479 -0.0408,0.0786 -0.013,0.0269 -0.012,0.0591 -0.0174,0.0884 -0.004,0.0238 -0.0266,0.0376 -0.0266,0.0615 7e-5,0.0247 -0.0206,0.0554 -0.0206,0.0801 0,0.0308 -1.6e-4,0.0617 -8e-5,0.0925 1.1e-4,0.027 2.1e-4,0.0539 2.6e-4,0.0809 -0.001,0.0251 2.1e-4,0.0496 0.005,0.0742 0.005,0.0236 0.006,0.0475 0.007,0.0715 5.3e-4,0.0261 5.3e-4,0.0522 5.3e-4,0.0782 0,0.0239 -2e-5,0.0478 -3e-5,0.0717 0.003,0.0213 0.007,0.0423 0.009,0.0639 -9e-5,0.0245 0.005,0.0481 0.009,0.0721 0.003,0.0213 0.007,0.0429 0.014,0.0635 0.007,0.0232 0.015,0.0464 0.0198,0.0703 0.003,0.0275 0.009,0.0546 0.0133,0.0819 0.004,0.0255 0.0101,0.0505 0.0133,0.0761 0.003,0.0273 0.002,0.0547 0.007,0.0818 0.004,0.0279 0.0136,0.0547 0.021,0.0819 0.005,0.0261 0.0161,0.0506 0.024,0.0759 0.008,0.0281 0.0154,0.0565 0.0217,0.0851 0.0104,0.0392 -0.0209,0.0651 -0.004,0.10165 0.0163,0.0369 0.0104,0.0448 0.0228,0.0831 v 0 l -0.0822,-0.0507 c -0.0119,-0.0377 0.0162,0.0361 0,0 -0.0182,-0.0375 -0.0524,-0.041 -0.0639,-0.0811 -0.006,-0.0281 -0.023,-0.0381 -0.0306,-0.0659 -0.008,-0.0257 -0.037,-0.0383 -0.0417,-0.0648 -0.007,-0.0277 -0.0174,-0.0547 -0.0222,-0.083 -0.005,-0.0274 -0.005,-0.0549 -0.007,-0.0827 -0.003,-0.0255 -0.009,-0.0502 -0.0131,-0.0755 -0.004,-0.0272 -0.0105,-0.054 -0.0128,-0.0814 -0.004,-0.0233 -0.012,-0.0456 -0.0194,-0.068 -0.007,-0.0213 -0.0115,-0.0442 -0.015,-0.0663 -0.003,-0.0244 -0.01,-0.0482 -0.01,-0.073 -0.002,-0.022 -0.0237,-0.0405 -0.0278,-0.0623 1e-5,-0.0239 0.003,-0.042 0.003,-0.0659 7e-5,-0.026 -0.0264,-0.0489 -0.0268,-0.075 -5.3e-4,-0.0231 9.5e-4,-0.0433 -0.003,-0.066 -0.005,-0.0256 -0.0228,-0.051 -0.0208,-0.0771 5e-5,-0.0271 0.012,-0.0659 0.0121,-0.093 7e-5,-0.0308 0.003,-0.0556 0.003,-0.0864 -1.2e-4,-0.0247 0.009,-0.0583 0.009,-0.083 4e-5,-0.0248 0.003,-0.0587 0.006,-0.0834 0.005,-0.0306 0.0395,-0.0512 0.0534,-0.0789 0.0135,-0.0316 0.026,-0.0634 0.0455,-0.092 0.0258,-0.0353 0.0561,-0.0679 0.0892,-0.0965 l 0.16223,-0.0657 z"
       inkscape:connector-curvature="0"
       sodipodi:nodetypes="ccccccccccscccccccccccccccccccccccccccccccccccccccc" />
    <path
       style="opacity:1;fill:url(#linearGradient6423);fill-opacity:1;stroke:none;stroke-width:0.5;stroke-miterlimit:4;stroke-dasharray:none;stroke-dashoffset:0;stroke-opacity:0.19607843"
       id="path6331"
       d="m 151.88624,180.64689 c -0.0352,-0.0321 -0.0726,-0.0615 -0.10843,-0.0928 -0.0282,-0.0264 -0.0528,-0.0554 -0.0733,-0.088 -0.0144,-0.0225 -0.0243,-0.0473 -0.0374,-0.0705 -0.0123,-0.0221 -0.0182,-0.0471 -0.0269,-0.0708 -0.0104,-0.0314 -0.0168,-0.0639 -0.0255,-0.0958 -0.009,-0.0406 -0.0189,-0.0811 -0.0306,-0.12109 -0.0102,-0.0309 -0.0172,-0.0626 -0.0208,-0.0949 -0.005,-0.0241 -0.009,-0.0483 -0.0115,-0.0729 -0.002,-0.0306 -0.002,-0.0613 -0.002,-0.0919 -3e-5,-0.031 -4e-5,-0.062 -1.3e-4,-0.0931 -1.7e-4,-0.0261 -4e-5,-0.0523 2e-5,-0.0785 -8e-5,-0.0273 -1e-5,-0.0546 3e-5,-0.0819 5.3e-4,-0.0282 0.008,-0.0552 0.0168,-0.0819 0.01,-0.0268 0.0182,-0.0537 0.0259,-0.0811 0.005,-0.0157 0.0415,-0.0407 0.0445,-0.0569 l 0.0186,-0.0622 0.0443,-0.0591 c -0.002,0.017 0.008,0.12566 0.002,0.14196 -0.009,0.027 0.0137,0.0932 0.004,0.11989 -0.009,0.0246 0.003,-0.0263 0,0 4e-5,0.0273 1.2e-4,0.0546 3e-5,0.0818 5e-5,0.0262 0.0149,0.0671 0.0147,0.0933 -1.5e-4,0.0311 0.006,0.0473 0.006,0.0784 6e-5,0.0302 0.0267,0.0752 0.0286,0.10526 0.002,0.0245 9e-5,0.0369 0.005,0.0608 0.003,0.0315 0.0139,0.0655 0.0241,0.0956 0.0119,0.04 0.0272,0.0689 0.0368,0.1095 0.009,0.0313 0.0397,0.0601 0.0493,0.091 0.009,0.0228 0.0142,0.0409 0.0257,0.0625 0.0127,0.0231 0.0348,0.0681 0.0484,0.0907 0.0194,0.0313 -0.005,0.0475 0.0226,0.0724 0.0353,0.0313 0.0625,0.20344 0.1,0.23214 z"
       inkscape:connector-curvature="0"
       sodipodi:nodetypes="cccccccccccccccccccccccccccccccccc" />
    <path
       style="opacity:1;fill:url(#linearGradient6421);fill-opacity:1;stroke:none;stroke-width:0.5;stroke-miterlimit:4;stroke-dasharray:none;stroke-dashoffset:0;stroke-opacity:0.19607843"
       id="path6333"
       d="m 152.67171,180.8963 c -0.0127,-0.0442 -0.0613,-0.0538 -0.0738,-0.098 -0.0107,-0.0312 -0.0149,-0.0639 -0.0219,-0.096 -0.003,-0.0234 -0.0101,-0.0453 -0.0191,-0.0669 -0.0105,-0.0256 -0.0166,-0.0527 -0.026,-0.0787 -0.0115,-0.0318 -0.027,-0.0616 -0.0369,-0.094 -0.0108,-0.0374 -0.036,-0.0591 -0.0452,-0.0969 -0.0116,-0.0456 -0.0378,-0.0793 -0.045,-0.12579 -0.007,-0.0348 -0.0228,-0.0478 -0.0286,-0.0828 -0.006,-0.0358 -0.0287,-0.0897 -0.035,-0.12534 -0.008,-0.0357 0.004,-0.0719 -0.003,-0.10796 -0.004,-0.0324 0.006,-0.0819 4.3e-4,-0.11412 -0.005,-0.0312 -0.0109,-0.0687 -0.0119,-0.10011 -2.5e-4,-0.0346 -7.9e-4,-0.0841 0.001,-0.11868 0.005,-0.0413 0.011,-0.0709 0.012,-0.11234 -0.0654,-0.0412 0.004,-0.091 0.008,-0.13187 0.004,-0.0337 0.003,-0.0646 0.006,-0.0984 0.004,-0.03 0.007,-0.0631 0.009,-0.0934 0.004,-0.0347 -0.006,-0.0486 -4.7e-4,-0.0832 0.005,-0.0341 0.0164,-0.0763 0.0212,-0.11052 0.006,-0.0297 0.024,-0.0615 0.0319,-0.0907 0.008,-0.0297 0.0448,-0.11773 0.0448,-0.11773 0,0 0.0661,-0.043 0.0793,-0.0618 0.007,-0.0127 -0.0108,0.01 0,0 l 0.16226,-0.0667 0.10631,-0.0177 c -0.01,0.01 -0.0631,0.0645 -0.0713,0.0762 -0.0114,0.0197 -0.033,0.0511 -0.0437,0.0713 -0.0123,0.0273 -0.0554,0.0707 -0.0627,0.0999 -0.009,0.0282 -0.0192,0.0315 -0.0281,0.0596 -0.004,0.0345 -0.0186,0.0592 -0.0245,0.0935 -0.005,0.0339 -0.012,0.062 -0.0175,0.0959 -10e-4,0.0306 -0.008,0.061 -0.012,0.0912 -0.004,0.0336 -0.002,0.056 -0.006,0.0897 -0.004,0.0407 -0.0101,0.0961 -0.009,0.13707 -0.001,0.0416 0.008,0.0655 0.003,0.10684 -0.003,0.034 0.005,0.0711 0.005,0.10526 2.6e-4,0.0307 0.007,0.0674 0.0109,0.0979 0.005,0.0323 -0.008,0.0668 -0.004,0.0992 0.007,0.036 -0.006,0.0545 0.002,0.0902 0.007,0.0357 0.007,0.0719 0.0115,0.10803 0.006,0.0351 -0.016,0.0688 -0.01,0.10392 0.006,0.0462 0.0496,0.0912 0.062,0.13613 0.009,0.0376 0.0225,0.0736 0.0336,0.11055 0.009,0.0322 0.001,0.0526 0.0128,0.0839 0.01,0.0256 0.0397,0.0612 0.05,0.0866 0.01,0.0227 0.0176,0.0454 0.0202,0.0701 0.007,0.0319 0.0109,0.0643 0.0205,0.0956 0.012,0.044 -0.0144,0.10366 6.6e-4,0.14686 l -0.009,0.13494 z"
       inkscape:connector-curvature="0"
       sodipodi:nodetypes="ccccccccccccccccccccccccccccccccccccccccccccccccccc" />
  </g>
</svg>
